<?xml version="1.0" encoding="utf-8"?>
<!-- Generator: Adobe Illustrator 21.0.0, SVG Export Plug-In . SVG Version: 6.00 Build 0)  -->
<svg version="1.1" id="Layer_1" xmlns="http://www.w3.org/2000/svg" xmlns:xlink="http://www.w3.org/1999/xlink" x="0px" y="0px"
	 viewBox="0 0 250 250" style="enable-background:new 0 0 250 250;" xml:space="preserve">
<style type="text/css">
	.st0{clip-path:url(#SVGID_2_);}
	.st1{fill:#1A2836;}
	.st2{fill:#1F2632;}
	.st3{fill:#1B2031;}
	.st4{fill:#3C4C66;}
	.st5{fill:#3A4F65;}
	.st6{fill:#1A375A;}
	.st7{fill:#617C97;}
	.st8{fill:#E5E5E5;}
	.st9{fill:url(#SVGID_3_);}
	.st10{fill:#FFFFFF;}
</style>
<g>
	<defs>
		<rect id="SVGID_1_" x="39.9" width="170.1" height="250"/>
	</defs>
	<clipPath id="SVGID_2_">
		<use xlink:href="#SVGID_1_"  style="overflow:visible;"/>
	</clipPath>
	<g class="st0">
		<path class="st1" d="M183.3,1.2c0,0.7-4.3,1.2-9.8,1.2c-5.3,0-9.8-0.5-9.8-1.2c0-0.7,4.3-1.2,9.8-1.2C179,0,183.3,0.5,183.3,1.2z"
			/>
		<path class="st1" d="M163.7,7.4V2c0-0.7,4.3-1.2,9.8-1.2c5.3,0,9.8,0.5,9.8,1.2v5.4H163.7z"/>
		<path class="st2" d="M81.5,12.1v236.7c10.8,0.7,23.6,1,37.3,1.2V12.1H81.5z"/>
		<path class="st3" d="M46.7,12.1l0.5,230.8c0,1.5,5.5,3,15,4.2V12.1H46.7z"/>
		<path class="st4" d="M62.2,12.1V247c5.3,0.7,11.8,1.2,19.3,1.7V12.1H62.2z"/>
		<path class="st1" d="M118.6,12.1V250c2,0,4.3,0,6.5,0c12.5,0,24.3-0.2,34.8-0.7V11.8L118.6,12.1z"/>
		<path class="st3" d="M203,242.6l-0.5-230.7h-8.3v234C200,244.8,203,243.8,203,242.6z"/>
		<path class="st5" d="M159.9,11.8v237.4c14.8-0.7,26.8-1.7,34.3-3.2V11.8H159.9z"/>
		<path class="st6" d="M40.2,242.3c0,4.4,38.1,7.9,84.9,7.7c46.9,0,84.9-3.7,84.9-7.9c0,0,0-5.7,0-6.7s-3.5-3.7-7-2.7
			c0,1.5,0,3.9,0,5.9c-13,2.7-43.1,4.9-77.9,4.9c-34.8,0-64.9-1.7-77.9-4.7c0-1.2,0-3.5,0-4.9c-2.3-0.7-6.8,0.5-7,2
			C40.2,237.7,40.2,242.3,40.2,242.3z"/>
		<path class="st7" d="M40.2,239.6c0,4.4,38.1,7.9,84.9,7.7c46.9,0,84.9-3.7,84.9-7.9c0,0,0-5.7,0-6.7c0-1-3.5-3.7-7-2.7
			c0,1.5,0,3.9,0,5.9c-13,2.7-43.1,4.9-77.9,4.9c-34.8,0-64.9-1.7-77.9-4.7c0-1.2,0-3.5,0-4.9c-2.3-0.7-6.8,0.5-7,2
			C40.2,235.2,40.2,239.6,40.2,239.6z"/>
		<path class="st7" d="M209.8,12.6c0-4.4-38.1-7.9-84.9-7.7c-46.9,0-84.9,3.5-84.7,7.9c0,0,0,5.7,0,6.7c0,1,3.5,3.7,7,2.7
			c0-1.5,0-3.9,0-5.9c13-2.7,43.1-4.9,77.9-4.9c34.8,0,64.9,1.7,77.9,4.7c0,1.2,0,3.5,0,4.9c2.3,0.7,6.8-0.5,7-2
			C209.8,17,209.8,12.6,209.8,12.6z"/>
		<path class="st3" d="M209.8,15.1c0-4.2-38.1-7.7-84.9-7.7c-46.9,0-84.7,3.7-84.7,7.9c0,0,0,5.7,0,6.7c0,1,3.5,3.7,7,2.7
			c0-1.5,0-3.9,0-5.9c13-2.7,43.1-4.9,77.9-4.9c34.8,0,64.9,1.7,77.9,4.7c0,1.2,0,3.5,0,4.9c2.3,0.7,6.8-0.5,7-2
			C209.8,19.7,209.8,15.1,209.8,15.1z"/>
		<path class="st6" d="M40.2,205.8c0,2.7,38.1,5.2,84.9,4.9c46.9,0,84.9-2.5,84.9-5.2c0,0,0-3.7,0-4.4s-3.5-2.5-7-1.7
			c0,1,0,2.7,0,3.9c-13,1.5-43.1,3-77.9,3c-34.8,0-64.9-1.2-77.9-3c0-0.7,0-2.2,0-3.2c-2.3-0.5-6.8,0.2-7,1.2
			C40.2,202.6,40.2,205.8,40.2,205.8z"/>
		<path class="st7" d="M40.2,204.1c0,3,38.1,5.2,84.9,4.9c46.9,0,84.9-2.5,84.9-5.2c0,0,0-3.7,0-4.4s-3.5-2.5-7-1.7c0,1,0,2.7,0,3.9
			c-13,1.7-43.1,3.2-77.9,3.2c-34.8,0-64.9-1.2-77.9-3c0-0.7,0-2.2,0-3.2c-2.3-0.5-6.8,0.2-7,1.2C40.2,201.1,40.2,204.1,40.2,204.1z
			"/>
		<path class="st4" d="M209.8,49.6c0-2.7-38.1-5.2-84.9-4.9c-46.9,0-84.9,2.5-84.9,5.2c0,0,0,3.7,0,4.4c0,0.7,3.5,2.5,7,1.7
			c0-1,0-2.7,0-3.9c13-1.7,43.1-3.2,77.9-3.2c34.8,0,64.9,1.2,77.9,3c0,0.7,0,2.2,0,3.2c2.3,0.5,6.8-0.2,7-1.2
			C209.8,52.6,209.8,49.6,209.8,49.6z"/>
		<path class="st3" d="M209.8,51.3c0-3-38.1-5.2-84.9-4.9c-46.9,0-84.9,2.5-84.9,5.2c0,0,0,3.7,0,4.4c0,0.7,3.5,2.5,7,1.7
			c0-1,0-2.7,0-3.9c13-1.7,43.1-3.2,77.9-3.2c34.8,0,64.9,1.2,77.9,3c0,0.7,0,2.2,0,3.2c2.3,0.5,6.8-0.2,7-1.2
			C209.8,54.3,209.8,51.3,209.8,51.3z"/>
		<path class="st8" d="M90.2,139.4c-4,0.1-11.7,0-11.7,0v26.4H64.3v-56c0-5.3,1.3-9.2,3.8-11.6c2.5-2.5,6.7-3.7,12.6-3.7h12
			c7.2,0,12.9,2.2,17.1,6.5c4.3,4.3,6.4,9.7,6.4,16.3c0,4.8-1.3,9-3.9,12.5c-2.5,3.5-5.6,5.9-9.4,7.2
			C102.9,137.1,98.6,139.2,90.2,139.4z M91.8,127.8c3,0,5.4-1,7.3-3c2-2.1,2.9-4.6,2.9-7.6c0-3.1-0.9-5.5-2.8-7.4
			c-1.8-1.9-4.3-2.8-7.4-2.8h-7c-4.2,0-6.3,2.1-6.3,6.3v14.5H91.8z"/>
		
			<linearGradient id="SVGID_3_" gradientUnits="userSpaceOnUse" x1="131.502" y1="156.2351" x2="131.502" y2="84.9663" gradientTransform="matrix(1 0 0 -1 0 252)">
			<stop  offset="0" style="stop-color:#FFFFFF"/>
			<stop  offset="1" style="stop-color:#FFFFFF"/>
		</linearGradient>
		<path class="st9" d="M105.6,150.4V167h6.6L105.6,150.4z M121.9,165.4v-24.8c0,0,5.5,0.1,9.5,0c8.4-0.2,12.8-2.3,12.8-2.3
			c3.7-1.3,6.8-3.7,9.4-7.2c2.6-3.5,3.9-7.7,3.9-12.5c0-6.6-2.1-12-6.4-16.3c-4.2-4.3-9.9-6.5-17.1-6.5h-12c-3.2,0-5.9,0.4-8.1,1.1
			c0.6,0.5,1.1,1,1.6,1.6c3,3.1,5,6.8,6.1,11.1c1-0.9,2.5-1.4,4.5-1.4h7c3.1,0,5.6,0.9,7.4,2.8c1.9,1.9,2.8,4.3,2.8,7.4
			c0,3-1,5.5-2.9,7.6c-1.9,2-4.3,3-7.3,3h-12.9c-0.5,1.2-1.2,2.3-1.9,3.3c-2.6,3.9-5.9,6.6-9.7,8.2L121.9,165.4z"/>
		<path class="st10" d="M88.1,143.1c1.7,0,3.3,0,4.6-0.1c4.7-0.1,8.2-0.8,10.5-1.4l12.9,25.3H99.8L88.1,143.1z"/>
		<path class="st10" d="M88.1,143.1c1.7,0,3.3,0,4.6-0.1c4.7-0.1,8.2-0.8,10.5-1.4l12.9,25.3H99.8L88.1,143.1z"/>
		<path class="st10" d="M177.1,103.8c0-3.1,2.5-5.6,5.6-5.6c3.1,0,5.6,2.5,5.6,5.6V167h-11.3V103.8z"/>
		<path class="st10" d="M175.1,100.8c-1.7,1.7-2.8,4-2.8,6.6v18.5h-11l12.9-25.3C174.5,100.7,174.8,100.7,175.1,100.8z M189,102
			c0.1,0.1,0.1,0.2,0.2,0.3l0.1-0.3C189.2,102,189.1,102,189,102z"/>
	</g>
</g>
</svg>
